<svg width="24" height="24" viewBox="0 0 24 24" fill="none" xmlns="http://www.w3.org/2000/svg">
<g clip-path="url(#clip0_36_2893)">
<path d="M8.30793 23.0769C8.81778 23.0769 9.2311 22.6636 9.2311 22.1538C9.2311 21.644 8.81778 21.2307 8.30793 21.2307C7.79808 21.2307 7.38477 21.644 7.38477 22.1538C7.38477 22.6636 7.79808 23.0769 8.30793 23.0769Z" stroke="#EA7C69" stroke-width="1.5" stroke-linecap="round" stroke-linejoin="round"/>
<path d="M20.3079 23.0769C20.8178 23.0769 21.2311 22.6636 21.2311 22.1538C21.2311 21.644 20.8178 21.2307 20.3079 21.2307C19.7981 21.2307 19.3848 21.644 19.3848 22.1538C19.3848 22.6636 19.7981 23.0769 20.3079 23.0769Z" stroke="#EA7C69" stroke-width="1.5" stroke-linecap="round" stroke-linejoin="round"/>
<path d="M0.92334 0.923096H4.45511L7.10394 18.4616H21.231" stroke="#EA7C69" stroke-width="1.5" stroke-linecap="round" stroke-linejoin="round"/>
<path d="M7.30209 13.8461H21.0487C21.1506 13.8462 21.2495 13.8056 21.3284 13.7312C21.4072 13.6568 21.4613 13.5532 21.4813 13.4381L23.0685 4.29959C23.0813 4.2259 23.0797 4.14986 23.0639 4.07695C23.0481 4.00403 23.0184 3.93608 22.977 3.87797C22.9356 3.81987 22.8836 3.77307 22.8246 3.74096C22.7656 3.70884 22.7011 3.69221 22.6358 3.69226H5.53857" stroke="#EA7C69" stroke-width="1.5" stroke-linecap="round" stroke-linejoin="round"/>
</g>
<defs>
<clipPath id="clip0_36_2893">
<rect width="24" height="24" fill="white"/>
</clipPath>
</defs>
</svg>
