<svg width="80" height="80" viewBox="0 0 80 80" fill="none" xmlns="http://www.w3.org/2000/svg">
<circle cx="40" cy="40" r="40" fill="#252836"/>
<path d="M37.8227 56H30.9892L31.0331 51.6274H37.8227C39.8002 51.6274 41.4555 51.1953 42.7885 50.3311C44.1361 49.4668 45.1469 48.229 45.8207 46.6177C46.5092 45.0063 46.8534 43.0874 46.8534 40.8608V39.125C46.8534 37.3965 46.6557 35.8657 46.2602 34.5327C45.8793 33.1997 45.308 32.0791 44.5463 31.1709C43.7992 30.2627 42.8764 29.5742 41.7777 29.1055C40.6937 28.6367 39.4413 28.4023 38.0204 28.4023H30.8573V24.0078H38.0204C40.1444 24.0078 42.0853 24.3667 43.8432 25.0845C45.601 25.7876 47.1171 26.8057 48.3915 28.1387C49.6806 29.4717 50.6693 31.0684 51.3578 32.9287C52.0463 34.7891 52.3905 36.8691 52.3905 39.1689V40.8608C52.3905 43.1606 52.0463 45.2407 51.3578 47.1011C50.6693 48.9614 49.6806 50.5581 48.3915 51.8911C47.1024 53.2095 45.5644 54.2275 43.7772 54.9453C42.0048 55.6484 40.0199 56 37.8227 56ZM34.0434 24.0078V56H28.5282V24.0078H34.0434Z" fill="white"/>
</svg>
