<svg width="24" height="24" viewBox="0 0 24 24" fill="none" xmlns="http://www.w3.org/2000/svg">
<path d="M17.4304 0C19.2471 0.0227344 20.9762 0.877248 22.2151 2.36459C23.4539 3.85193 24.0943 5.84228 23.9887 7.81196L23.9872 16.1279C24.0943 18.1577 23.4539 20.1481 22.2151 21.6354C20.9762 23.1228 19.2471 23.9773 17.4202 24H6.54742C2.74398 24 0 20.5847 0 16.188V7.81196C0 3.41535 2.74398 0 6.54742 0H17.4304ZM17.4101 2.03784H6.54742C3.79535 2.03784 1.82093 4.4954 1.82093 7.81196V16.188C1.82093 19.5046 3.79535 21.9622 6.54742 21.9622H17.4101C18.7288 21.9457 19.9839 21.3254 20.8831 20.2458C21.7823 19.1662 22.2472 17.7215 22.1678 16.188L22.1694 7.75185C22.2472 6.27849 21.7823 4.83377 20.8831 3.75417C19.9839 2.67456 18.7288 2.0543 17.4101 2.03784ZM19.2288 7.51782C19.5145 7.91723 19.488 8.48348 19.1859 8.84735L19.087 8.95007L14.1586 13.3648C12.9616 14.409 11.3077 14.4612 10.0596 13.5167L9.86608 13.3593L4.90472 8.95271C4.51084 8.60288 4.44495 7.96195 4.75753 7.52114C5.0417 7.12041 5.54083 7.02303 5.92516 7.27147L6.03668 7.35642L10.9918 11.7575C11.5473 12.2421 12.309 12.2794 12.889 11.8758L13.0299 11.7657L17.9491 7.35907C18.3417 7.0074 18.9146 7.07848 19.2288 7.51782Z" fill="#EA7C69"/>
</svg>
