<svg width="25" height="25" viewBox="0 0 25 25" fill="none" xmlns="http://www.w3.org/2000/svg">
<path d="M9.9422 1.87372C11.5464 0.662799 13.7948 0.614794 15.4483 1.72971L15.6517 1.87372L23.343 7.71951C24.1894 8.34237 24.7085 9.26766 24.7969 10.2746L24.8096 10.5158V20.2476C24.8096 22.7558 22.7241 24.796 20.1106 24.928H17.5969C16.3957 24.9052 15.4243 24.0171 15.3359 22.901L15.3233 22.7318V19.3007C15.3233 18.9274 15.0315 18.6166 14.6411 18.5554L14.5275 18.5434H11.1536C10.7506 18.5554 10.4222 18.8314 10.3717 19.1915L10.359 19.3007V22.721C10.359 22.7918 10.3451 22.8758 10.3338 22.9358L10.3211 22.961L10.3073 23.0439C10.1569 24.0652 9.27273 24.844 8.17378 24.9172L8.00957 24.928H5.74852C3.10852 24.928 0.948518 22.961 0.80957 20.4876V10.5158C0.820939 9.49449 1.28957 8.54639 2.07273 7.88633L9.9422 1.87372ZM14.5527 3.18185C13.5927 2.44978 12.2285 2.41498 11.218 3.04984L11.0273 3.18185L3.34725 9.06364C2.90641 9.37448 2.64115 9.84252 2.57799 10.3346L2.5641 10.5266V20.2476C2.5641 21.8437 3.87778 23.1519 5.54641 23.2479H8.00957C8.28746 23.2479 8.52746 23.0691 8.5641 22.817L8.59062 22.601L8.60325 22.5398V19.3007C8.60325 18.0165 9.63904 16.9724 10.9654 16.8752H14.5275C15.8778 16.8752 16.9767 17.8605 17.079 19.1207V22.7318C17.079 22.9838 17.2685 23.2011 17.5211 23.2479H19.8694C21.562 23.2479 22.9388 22.0129 23.0399 20.4396L23.0538 20.2476V10.5266C23.0399 10.0117 22.8138 9.53049 22.4222 9.17165L22.258 9.03844L14.5527 3.18185Z" fill="white"/>
</svg>
