<svg width="22" height="26" viewBox="0 0 22 26" fill="none" xmlns="http://www.w3.org/2000/svg">
<path d="M14.2599 22.6133C14.6307 22.9152 14.6894 23.4641 14.3912 23.8394C14.1707 24.1168 13.9159 24.3652 13.6459 24.5688C12.7364 25.2825 11.58 25.6061 10.4316 25.4693C9.28222 25.3324 8.23376 24.7453 7.51823 23.8362C7.22175 23.4595 7.28308 22.9108 7.65522 22.6107C8.02736 22.3106 8.56939 22.3726 8.86588 22.7493C9.2974 23.2976 9.93337 23.6537 10.633 23.737C11.3336 23.8205 12.0384 23.6233 12.6032 23.1803C12.7697 23.0547 12.9194 22.9087 13.0486 22.7461C13.3469 22.3708 13.8892 22.3114 14.2599 22.6133ZM2.44016 9.24968L2.45555 8.50489C2.46655 8.18632 2.48358 7.8906 2.50856 7.6012C2.88318 3.5557 6.74456 0.5 10.956 0.5H11.0451C15.2543 0.5 19.1168 3.55357 19.5042 7.60671C19.5264 7.86435 19.536 8.09322 19.5389 8.41508L19.54 9.39978C19.5409 9.48947 19.5424 9.56836 19.5447 9.64191L19.5563 9.88721L19.612 10.1211C19.7879 10.7725 20.097 11.3816 20.5203 11.9103L20.7087 12.1318L20.7858 12.2308C21.2935 12.9896 21.5835 13.8725 21.625 14.8234L21.6238 15.3275C21.5883 16.4537 21.1749 17.5414 20.4173 18.4477C19.4139 19.5126 18.0542 20.1742 16.6092 20.3072C12.8775 20.7124 9.11249 20.7124 5.3912 20.3082C3.9362 20.1683 2.58055 19.5087 1.53329 18.4029C0.761024 17.4614 0.350519 16.276 0.37613 15.078L0.377187 14.7802C0.421803 13.8694 0.710045 12.9873 1.2117 12.2252L1.29567 12.1172C1.88156 11.4749 2.28211 10.6888 2.45591 9.84132L2.43711 9.91744L2.44016 9.24968ZM11.0451 2.24419H10.956C7.58314 2.24419 4.51004 4.67608 4.22459 7.75847C4.20998 7.92785 4.19832 8.10259 4.18922 8.2865L4.16915 8.86949L4.16099 10.0186L4.14301 10.1958C3.90555 11.3538 3.35911 12.4262 2.56162 13.3005L2.6232 13.2291L2.51306 13.4114C2.30673 13.7831 2.17362 14.1869 2.12103 14.5853L2.09919 14.8234L2.09899 15.0968C2.0821 15.8928 2.35108 16.6695 2.81711 17.2413C3.53602 17.9981 4.50853 18.4713 5.5646 18.5729C9.1741 18.9649 12.8159 18.9649 16.4392 18.5715C17.4838 18.4753 18.4557 18.0025 19.1355 17.2833C19.6499 16.6663 19.9218 15.8871 19.9019 15.067L19.903 14.8627C19.8766 14.2732 19.6888 13.7016 19.3592 13.209L19.3782 13.2407L19.2059 13.0386C18.6117 12.3051 18.18 11.4544 17.9396 10.5425L17.8585 10.1977L17.8424 10.0819C17.8302 9.91266 17.8232 9.76227 17.8194 9.58142L17.816 8.45062C17.8137 8.16305 17.8059 7.96948 17.7884 7.76658C17.493 4.67594 14.417 2.24419 11.0451 2.24419Z" fill="#EA7C69"/>
</svg>
