<svg width="26" height="26" viewBox="0 0 26 26" fill="none" xmlns="http://www.w3.org/2000/svg">
<path d="M11.1222 6.45075C11.2318 6.66856 11.2977 6.90491 11.3166 7.15128L11.8023 14.0119C11.8088 14.1059 11.8534 14.1935 11.9261 14.2553C11.9806 14.3016 12.0476 14.3306 12.1225 14.339L12.1999 14.3405L19.1676 13.9207C19.7334 13.8875 20.2882 14.0844 20.7005 14.4648C21.1128 14.8453 21.3461 15.3755 21.343 15.989C21.0331 20.5046 17.7163 24.2796 13.1988 25.2581C8.68128 26.2366 4.04514 24.1842 1.82227 20.231C1.22787 19.2119 0.827223 18.0972 0.642247 16.9686L0.583034 16.5449C0.531628 16.2276 0.503988 15.9072 0.5 15.5994L0.503892 15.2965C0.516748 10.5818 3.82695 6.50503 8.48511 5.40543L8.80478 5.33509L8.97675 5.30665C9.87749 5.18351 10.7637 5.65566 11.1222 6.45075ZM9.27053 7.09766L9.16521 7.10965L8.87961 7.17416C5.16908 8.06847 2.50775 11.2629 2.35995 15.0263L2.3535 15.3326C2.34461 15.5657 2.35312 15.799 2.38124 16.0472L2.41596 16.301C2.54015 17.3688 2.88494 18.4008 3.43643 19.3465C5.2704 22.6079 9.08336 24.2959 12.7988 23.4911C16.5141 22.6863 19.2421 19.5816 19.4948 15.9267C19.4948 15.8717 19.4717 15.8191 19.4308 15.7813C19.4035 15.7561 19.3699 15.739 19.3343 15.7314L19.28 15.7272L12.3238 16.1462C11.7367 16.1879 11.1569 15.9991 10.7125 15.6214C10.2682 15.2438 9.99604 14.7086 9.95652 14.1375L9.47128 7.28271C9.47041 7.27135 9.46732 7.26027 9.44603 7.21623C9.41438 7.14619 9.3456 7.10164 9.27053 7.09766ZM14.7787 0.501313C20.1356 0.652836 24.6286 4.50203 25.488 9.67605L25.5 9.82087L25.4972 10.0732C25.4671 10.4453 25.3172 10.7991 25.0681 11.0835C24.7552 11.4405 24.3096 11.6608 23.8235 11.6959L15.5167 12.2376C14.4519 12.2977 13.5369 11.5064 13.4676 10.4669L12.9123 2.31142L12.9186 2.12869L12.9462 1.9228C13.0203 1.55774 13.2105 1.22422 13.4906 0.970535C13.8424 0.651956 14.3092 0.483261 14.7787 0.501313ZM14.7641 2.31128L15.3139 10.3477C15.3171 10.3965 15.36 10.4336 15.4018 10.4313L23.6478 9.89191L23.6068 9.6669C22.7897 5.60025 19.2649 2.58053 15.0359 2.32416L14.7641 2.31128Z" fill="#EA7C69"/>
</svg>
